<mxfile host="65bd71144e">
    <diagram id="Mq0qF-HecviFzmJC2U78" name="Page-1">
        <mxGraphModel dx="869" dy="667" grid="1" gridSize="10" guides="1" tooltips="1" connect="1" arrows="1" fold="1" page="0" pageScale="1" pageWidth="827" pageHeight="1169" math="0" shadow="0">
            <root>
                <mxCell id="0"/>
                <mxCell id="1" parent="0"/>
                <mxCell id="4" value="" style="rounded=0;whiteSpace=wrap;html=1;" parent="1" vertex="1">
                    <mxGeometry x="160" y="40" width="240" height="200" as="geometry"/>
                </mxCell>
                <mxCell id="2" value="val = 0x12345678" style="rounded=0;whiteSpace=wrap;html=1;align=left;spacingLeft=5;fontFamily=Lucida Console;fontSize=11;" parent="1" vertex="1">
                    <mxGeometry x="160" y="165" width="120" height="20" as="geometry"/>
                </mxCell>
                <mxCell id="3" value="&lt;font style=&quot;font-size: 11px&quot;&gt;val_ptr = &lt;/font&gt;&lt;font color=&quot;#007fff&quot; style=&quot;font-size: 11px&quot;&gt;0x00000002_0b2fd6b4&lt;/font&gt;" style="rounded=0;whiteSpace=wrap;html=1;align=left;spacingLeft=5;fontFamily=Lucida Console;fontSize=11;" parent="1" vertex="1">
                    <mxGeometry x="160" y="125" width="240" height="20" as="geometry"/>
                </mxCell>
                <mxCell id="5" value="Address" style="text;html=1;strokeColor=none;fillColor=none;align=center;verticalAlign=middle;whiteSpace=wrap;rounded=0;fontFamily=Lucida Console;" parent="1" vertex="1">
                    <mxGeometry x="70" y="20" width="40" height="20" as="geometry"/>
                </mxCell>
                <mxCell id="6" value="RAM" style="text;html=1;strokeColor=none;fillColor=none;align=center;verticalAlign=middle;whiteSpace=wrap;rounded=0;fontFamily=Lucida Console;" parent="1" vertex="1">
                    <mxGeometry x="250" y="20" width="40" height="20" as="geometry"/>
                </mxCell>
                <mxCell id="7" value="&lt;span style=&quot;font-size: 11px; font-style: normal; font-weight: 400; letter-spacing: normal; text-indent: 0px; text-transform: none; word-spacing: 0px; background-color: rgb(42, 42, 42); display: inline; float: none;&quot;&gt;0x00000002_0b2fd6b4&lt;/span&gt;" style="text;whiteSpace=wrap;html=1;fontFamily=Lucida Console;align=right;fontColor=#007FFF;fontSize=11;" parent="1" vertex="1">
                    <mxGeometry x="26" y="162" width="130" height="30" as="geometry"/>
                </mxCell>
                <mxCell id="8" value="&lt;span style=&quot;color: rgb(240, 240, 240); font-size: 11px; font-style: normal; font-weight: 400; letter-spacing: normal; text-indent: 0px; text-transform: none; word-spacing: 0px; background-color: rgb(42, 42, 42); display: inline; float: none;&quot;&gt;0x00000000_00000000&lt;/span&gt;" style="text;whiteSpace=wrap;html=1;fontFamily=Lucida Console;align=right;fontSize=11;" parent="1" vertex="1">
                    <mxGeometry x="26" y="34" width="130" height="30" as="geometry"/>
                </mxCell>
                <mxCell id="9" value="&lt;span style=&quot;color: rgb(240, 240, 240); font-size: 11px; font-style: normal; font-weight: 400; letter-spacing: normal; text-indent: 0px; text-transform: none; word-spacing: 0px; background-color: rgb(42, 42, 42); display: inline; float: none;&quot;&gt;0xFFFFFFFF_FFFFFFFF&lt;/span&gt;" style="text;whiteSpace=wrap;html=1;fontFamily=Lucida Console;align=right;fontSize=11;" parent="1" vertex="1">
                    <mxGeometry x="25" y="220" width="130" height="29" as="geometry"/>
                </mxCell>
                <mxCell id="10" value="64-bit" style="rounded=0;whiteSpace=wrap;html=1;align=center;spacingLeft=5;fontFamily=Lucida Console;" parent="1" vertex="1">
                    <mxGeometry x="160" y="40" width="240" height="20" as="geometry"/>
                </mxCell>
                <mxCell id="12" value="32-bit" style="rounded=0;whiteSpace=wrap;html=1;align=center;spacingLeft=5;fontFamily=Lucida Console;" parent="1" vertex="1">
                    <mxGeometry x="160" y="60" width="120" height="20" as="geometry"/>
                </mxCell>
                <mxCell id="14" value="32-bit" style="rounded=0;whiteSpace=wrap;html=1;align=center;spacingLeft=5;fontFamily=Lucida Console;" parent="1" vertex="1">
                    <mxGeometry x="280" y="60" width="120" height="20" as="geometry"/>
                </mxCell>
                <mxCell id="15" value="" style="rounded=0;whiteSpace=wrap;html=1;" parent="1" vertex="1">
                    <mxGeometry x="160" y="340" width="240" height="240" as="geometry"/>
                </mxCell>
                <mxCell id="16" value="val = 12345678" style="rounded=0;whiteSpace=wrap;html=1;align=left;spacingLeft=5;fontFamily=Lucida Console;fontSize=11;" parent="1" vertex="1">
                    <mxGeometry x="160" y="500" width="120" height="20" as="geometry"/>
                </mxCell>
                <mxCell id="17" value="&lt;font style=&quot;font-size: 11px&quot;&gt;val_ptr =&amp;nbsp;&lt;/font&gt;&lt;font color=&quot;#007fff&quot;&gt;0x000000bc_10b8de14&lt;/font&gt;" style="rounded=0;whiteSpace=wrap;html=1;align=left;spacingLeft=5;fontFamily=Lucida Console;fontSize=11;" parent="1" vertex="1">
                    <mxGeometry x="160" y="460" width="240" height="20" as="geometry"/>
                </mxCell>
                <mxCell id="18" value="Address" style="text;html=1;strokeColor=none;fillColor=none;align=center;verticalAlign=middle;whiteSpace=wrap;rounded=0;fontFamily=Lucida Console;" parent="1" vertex="1">
                    <mxGeometry x="70" y="320" width="40" height="20" as="geometry"/>
                </mxCell>
                <mxCell id="19" value="RAM" style="text;html=1;strokeColor=none;fillColor=none;align=center;verticalAlign=middle;whiteSpace=wrap;rounded=0;fontFamily=Lucida Console;" parent="1" vertex="1">
                    <mxGeometry x="250" y="320" width="40" height="20" as="geometry"/>
                </mxCell>
                <mxCell id="20" value="&lt;span style=&quot;text-align: left&quot;&gt;0x000000bc_10b8de14&lt;/span&gt;" style="text;whiteSpace=wrap;html=1;fontFamily=Lucida Console;align=right;fontColor=#007FFF;fontSize=11;" parent="1" vertex="1">
                    <mxGeometry x="26" y="497" width="130" height="30" as="geometry"/>
                </mxCell>
                <mxCell id="21" value="&lt;span style=&quot;color: rgb(240, 240, 240); font-size: 11px; font-style: normal; font-weight: 400; letter-spacing: normal; text-indent: 0px; text-transform: none; word-spacing: 0px; background-color: rgb(42, 42, 42); display: inline; float: none;&quot;&gt;0x00000000_00000000&lt;/span&gt;" style="text;whiteSpace=wrap;html=1;fontFamily=Lucida Console;align=right;fontSize=11;" parent="1" vertex="1">
                    <mxGeometry x="26" y="334" width="130" height="30" as="geometry"/>
                </mxCell>
                <mxCell id="22" value="&lt;span style=&quot;color: rgb(240, 240, 240); font-size: 11px; font-style: normal; font-weight: 400; letter-spacing: normal; text-indent: 0px; text-transform: none; word-spacing: 0px; background-color: rgb(42, 42, 42); display: inline; float: none;&quot;&gt;0xFFFFFFFF_FFFFFFFF&lt;/span&gt;" style="text;whiteSpace=wrap;html=1;fontFamily=Lucida Console;align=right;fontSize=11;" parent="1" vertex="1">
                    <mxGeometry x="26" y="565" width="130" height="29" as="geometry"/>
                </mxCell>
                <mxCell id="23" value="64-bit" style="rounded=0;whiteSpace=wrap;html=1;align=center;spacingLeft=5;fontFamily=Lucida Console;" parent="1" vertex="1">
                    <mxGeometry x="160" y="340" width="240" height="20" as="geometry"/>
                </mxCell>
                <mxCell id="24" value="32-bit" style="rounded=0;whiteSpace=wrap;html=1;align=center;spacingLeft=5;fontFamily=Lucida Console;" parent="1" vertex="1">
                    <mxGeometry x="160" y="360" width="120" height="20" as="geometry"/>
                </mxCell>
                <mxCell id="25" value="32-bit" style="rounded=0;whiteSpace=wrap;html=1;align=center;spacingLeft=5;fontFamily=Lucida Console;" parent="1" vertex="1">
                    <mxGeometry x="280" y="360" width="120" height="20" as="geometry"/>
                </mxCell>
                <mxCell id="26" value="val_ref =&amp;nbsp;&lt;font color=&quot;#007fff&quot;&gt;0x000000bc_10b8de14&lt;/font&gt;" style="rounded=0;whiteSpace=wrap;html=1;align=left;spacingLeft=5;fontFamily=Lucida Console;fontSize=11;" parent="1" vertex="1">
                    <mxGeometry x="160" y="420" width="240" height="20" as="geometry"/>
                </mxCell>
                <mxCell id="41" value="" style="rounded=0;whiteSpace=wrap;html=1;" parent="1" vertex="1">
                    <mxGeometry x="160" y="650" width="240" height="350" as="geometry"/>
                </mxCell>
                <mxCell id="42" value="&lt;font color=&quot;#f0f0f0&quot;&gt;val + 0x00 = &lt;/font&gt;0x00000180_1B50FD20" style="rounded=0;whiteSpace=wrap;html=1;align=left;spacingLeft=5;fontFamily=Lucida Console;fontSize=11;fontColor=#33FF33;" parent="1" vertex="1">
                    <mxGeometry x="160" y="810" width="240" height="20" as="geometry"/>
                </mxCell>
                <mxCell id="43" value="&lt;font style=&quot;font-size: 11px&quot;&gt;val_ptr =&amp;nbsp;&lt;/font&gt;&lt;font color=&quot;#007fff&quot;&gt;0x00000067_12aff018&lt;/font&gt;" style="rounded=0;whiteSpace=wrap;html=1;align=left;spacingLeft=5;fontFamily=Lucida Console;fontSize=11;" parent="1" vertex="1">
                    <mxGeometry x="160" y="770" width="240" height="20" as="geometry"/>
                </mxCell>
                <mxCell id="44" value="Address" style="text;html=1;strokeColor=none;fillColor=none;align=center;verticalAlign=middle;whiteSpace=wrap;rounded=0;fontFamily=Lucida Console;" parent="1" vertex="1">
                    <mxGeometry x="70" y="630" width="40" height="20" as="geometry"/>
                </mxCell>
                <mxCell id="45" value="RAM" style="text;html=1;strokeColor=none;fillColor=none;align=center;verticalAlign=middle;whiteSpace=wrap;rounded=0;fontFamily=Lucida Console;" parent="1" vertex="1">
                    <mxGeometry x="250" y="630" width="40" height="20" as="geometry"/>
                </mxCell>
                <mxCell id="46" value="&lt;div style=&quot;text-align: left&quot;&gt;&lt;span&gt;0x00000067_12aff018&lt;/span&gt;&lt;/div&gt;" style="text;whiteSpace=wrap;html=1;fontFamily=Lucida Console;align=right;fontColor=#007FFF;fontSize=11;" parent="1" vertex="1">
                    <mxGeometry x="26" y="807" width="130" height="30" as="geometry"/>
                </mxCell>
                <mxCell id="47" value="&lt;span style=&quot;color: rgb(240, 240, 240); font-size: 11px; font-style: normal; font-weight: 400; letter-spacing: normal; text-indent: 0px; text-transform: none; word-spacing: 0px; background-color: rgb(42, 42, 42); display: inline; float: none;&quot;&gt;0x00000000_00000000&lt;/span&gt;" style="text;whiteSpace=wrap;html=1;fontFamily=Lucida Console;align=right;fontSize=11;" parent="1" vertex="1">
                    <mxGeometry x="26" y="644" width="130" height="30" as="geometry"/>
                </mxCell>
                <mxCell id="48" value="&lt;span style=&quot;color: rgb(240, 240, 240); font-size: 11px; font-style: normal; font-weight: 400; letter-spacing: normal; text-indent: 0px; text-transform: none; word-spacing: 0px; background-color: rgb(42, 42, 42); display: inline; float: none;&quot;&gt;0xFFFFFFFF_FFFFFFFF&lt;/span&gt;" style="text;whiteSpace=wrap;html=1;fontFamily=Lucida Console;align=right;fontSize=11;" parent="1" vertex="1">
                    <mxGeometry x="26" y="980" width="130" height="29" as="geometry"/>
                </mxCell>
                <mxCell id="49" value="64-bit" style="rounded=0;whiteSpace=wrap;html=1;align=center;spacingLeft=5;fontFamily=Lucida Console;" parent="1" vertex="1">
                    <mxGeometry x="160" y="650" width="240" height="20" as="geometry"/>
                </mxCell>
                <mxCell id="50" value="32-bit" style="rounded=0;whiteSpace=wrap;html=1;align=center;spacingLeft=5;fontFamily=Lucida Console;" parent="1" vertex="1">
                    <mxGeometry x="160" y="670" width="120" height="20" as="geometry"/>
                </mxCell>
                <mxCell id="51" value="32-bit" style="rounded=0;whiteSpace=wrap;html=1;align=center;spacingLeft=5;fontFamily=Lucida Console;" parent="1" vertex="1">
                    <mxGeometry x="280" y="670" width="120" height="20" as="geometry"/>
                </mxCell>
                <mxCell id="52" value="val_ref =&amp;nbsp;&lt;font color=&quot;#007fff&quot;&gt;0x00000067_12AFF018&lt;/font&gt;" style="rounded=0;whiteSpace=wrap;html=1;align=left;spacingLeft=5;fontFamily=Lucida Console;fontSize=11;" parent="1" vertex="1">
                    <mxGeometry x="160" y="730" width="240" height="20" as="geometry"/>
                </mxCell>
                <mxCell id="54" value="val + 0x08 = 5" style="rounded=0;whiteSpace=wrap;html=1;align=left;spacingLeft=5;fontFamily=Lucida Console;fontSize=11;" parent="1" vertex="1">
                    <mxGeometry x="160" y="830" width="240" height="20" as="geometry"/>
                </mxCell>
                <mxCell id="55" value="val + 0x10 = 5" style="rounded=0;whiteSpace=wrap;html=1;align=left;spacingLeft=5;fontFamily=Lucida Console;fontSize=11;" parent="1" vertex="1">
                    <mxGeometry x="160" y="850" width="240" height="20" as="geometry"/>
                </mxCell>
                <mxCell id="56" value="&lt;div style=&quot;text-align: left&quot;&gt;&lt;span style=&quot;&quot;&gt;0x00000180_1B50FD20&lt;/span&gt;&lt;br&gt;&lt;/div&gt;" style="text;whiteSpace=wrap;html=1;fontFamily=Lucida Console;align=right;fontSize=11;fontColor=#33FF33;" parent="1" vertex="1">
                    <mxGeometry x="30" y="895" width="130" height="30" as="geometry"/>
                </mxCell>
                <mxCell id="57" value="0x10" style="rounded=0;whiteSpace=wrap;html=1;align=left;spacingLeft=5;fontFamily=Lucida Console;fontSize=11;" parent="1" vertex="1">
                    <mxGeometry x="160" y="900" width="120" height="20" as="geometry"/>
                </mxCell>
                <mxCell id="58" value="0x20" style="rounded=0;whiteSpace=wrap;html=1;align=left;spacingLeft=5;fontFamily=Lucida Console;fontSize=11;" parent="1" vertex="1">
                    <mxGeometry x="280" y="900" width="120" height="20" as="geometry"/>
                </mxCell>
                <mxCell id="59" value="0x30" style="rounded=0;whiteSpace=wrap;html=1;align=left;spacingLeft=5;fontFamily=Lucida Console;fontSize=11;" parent="1" vertex="1">
                    <mxGeometry x="160" y="920" width="120" height="20" as="geometry"/>
                </mxCell>
                <mxCell id="60" value="0x40" style="rounded=0;whiteSpace=wrap;html=1;align=left;spacingLeft=5;fontFamily=Lucida Console;fontSize=11;" parent="1" vertex="1">
                    <mxGeometry x="280" y="920" width="120" height="20" as="geometry"/>
                </mxCell>
                <mxCell id="61" value="0x50" style="rounded=0;whiteSpace=wrap;html=1;align=left;spacingLeft=5;fontFamily=Lucida Console;fontSize=11;" parent="1" vertex="1">
                    <mxGeometry x="160" y="940" width="120" height="20" as="geometry"/>
                </mxCell>
                <mxCell id="84" value="" style="rounded=0;whiteSpace=wrap;html=1;" parent="1" vertex="1">
                    <mxGeometry x="160" y="1080" width="240" height="350" as="geometry"/>
                </mxCell>
                <mxCell id="85" value="&lt;font color=&quot;#f0f0f0&quot;&gt;val + 0x00 = &lt;/font&gt;0x00000180_1B50FD20" style="rounded=0;whiteSpace=wrap;html=1;align=left;spacingLeft=5;fontFamily=Lucida Console;fontSize=11;fontColor=#33FF33;" parent="1" vertex="1">
                    <mxGeometry x="160" y="1143" width="240" height="20" as="geometry"/>
                </mxCell>
                <mxCell id="87" value="Address" style="text;html=1;strokeColor=none;fillColor=none;align=center;verticalAlign=middle;whiteSpace=wrap;rounded=0;fontFamily=Lucida Console;" parent="1" vertex="1">
                    <mxGeometry x="70" y="1060" width="40" height="20" as="geometry"/>
                </mxCell>
                <mxCell id="88" value="RAM" style="text;html=1;strokeColor=none;fillColor=none;align=center;verticalAlign=middle;whiteSpace=wrap;rounded=0;fontFamily=Lucida Console;" parent="1" vertex="1">
                    <mxGeometry x="250" y="1060" width="40" height="20" as="geometry"/>
                </mxCell>
                <mxCell id="90" value="&lt;span style=&quot;color: rgb(240, 240, 240); font-size: 11px; font-style: normal; font-weight: 400; letter-spacing: normal; text-indent: 0px; text-transform: none; word-spacing: 0px; background-color: rgb(42, 42, 42); display: inline; float: none;&quot;&gt;0x00000000_00000000&lt;/span&gt;" style="text;whiteSpace=wrap;html=1;fontFamily=Lucida Console;align=right;fontSize=11;" parent="1" vertex="1">
                    <mxGeometry x="26" y="1074" width="130" height="30" as="geometry"/>
                </mxCell>
                <mxCell id="91" value="&lt;span style=&quot;color: rgb(240, 240, 240); font-size: 11px; font-style: normal; font-weight: 400; letter-spacing: normal; text-indent: 0px; text-transform: none; word-spacing: 0px; background-color: rgb(42, 42, 42); display: inline; float: none;&quot;&gt;0xFFFFFFFF_FFFFFFFF&lt;/span&gt;" style="text;whiteSpace=wrap;html=1;fontFamily=Lucida Console;align=right;fontSize=11;" parent="1" vertex="1">
                    <mxGeometry x="26" y="1410" width="130" height="29" as="geometry"/>
                </mxCell>
                <mxCell id="92" value="64-bit" style="rounded=0;whiteSpace=wrap;html=1;align=center;spacingLeft=5;fontFamily=Lucida Console;" parent="1" vertex="1">
                    <mxGeometry x="160" y="1080" width="240" height="20" as="geometry"/>
                </mxCell>
                <mxCell id="93" value="32-bit" style="rounded=0;whiteSpace=wrap;html=1;align=center;spacingLeft=5;fontFamily=Lucida Console;" parent="1" vertex="1">
                    <mxGeometry x="160" y="1100" width="120" height="20" as="geometry"/>
                </mxCell>
                <mxCell id="94" value="32-bit" style="rounded=0;whiteSpace=wrap;html=1;align=center;spacingLeft=5;fontFamily=Lucida Console;" parent="1" vertex="1">
                    <mxGeometry x="280" y="1100" width="120" height="20" as="geometry"/>
                </mxCell>
                <mxCell id="96" value="val + 0x08 = 5" style="rounded=0;whiteSpace=wrap;html=1;align=left;spacingLeft=5;fontFamily=Lucida Console;fontSize=11;" parent="1" vertex="1">
                    <mxGeometry x="160" y="1163" width="240" height="20" as="geometry"/>
                </mxCell>
                <mxCell id="97" value="val + 0x10 = 5" style="rounded=0;whiteSpace=wrap;html=1;align=left;spacingLeft=5;fontFamily=Lucida Console;fontSize=11;" parent="1" vertex="1">
                    <mxGeometry x="160" y="1183" width="240" height="20" as="geometry"/>
                </mxCell>
                <mxCell id="98" value="&lt;div style=&quot;text-align: left&quot;&gt;&lt;span style=&quot;&quot;&gt;0x00000180_1B50FD20&lt;/span&gt;&lt;br&gt;&lt;/div&gt;" style="text;whiteSpace=wrap;html=1;fontFamily=Lucida Console;align=right;fontSize=11;fontColor=#33FF33;" parent="1" vertex="1">
                    <mxGeometry x="29" y="1320" width="130" height="30" as="geometry"/>
                </mxCell>
                <mxCell id="99" value="0x10" style="rounded=0;whiteSpace=wrap;html=1;align=left;spacingLeft=5;fontFamily=Lucida Console;fontSize=11;" parent="1" vertex="1">
                    <mxGeometry x="160" y="1330" width="120" height="20" as="geometry"/>
                </mxCell>
                <mxCell id="100" value="0x20" style="rounded=0;whiteSpace=wrap;html=1;align=left;spacingLeft=5;fontFamily=Lucida Console;fontSize=11;" parent="1" vertex="1">
                    <mxGeometry x="280" y="1330" width="120" height="20" as="geometry"/>
                </mxCell>
                <mxCell id="101" value="0x30" style="rounded=0;whiteSpace=wrap;html=1;align=left;spacingLeft=5;fontFamily=Lucida Console;fontSize=11;" parent="1" vertex="1">
                    <mxGeometry x="160" y="1350" width="120" height="20" as="geometry"/>
                </mxCell>
                <mxCell id="102" value="0x40" style="rounded=0;whiteSpace=wrap;html=1;align=left;spacingLeft=5;fontFamily=Lucida Console;fontSize=11;" parent="1" vertex="1">
                    <mxGeometry x="280" y="1350" width="120" height="20" as="geometry"/>
                </mxCell>
                <mxCell id="103" value="0x50" style="rounded=0;whiteSpace=wrap;html=1;align=left;spacingLeft=5;fontFamily=Lucida Console;fontSize=11;" parent="1" vertex="1">
                    <mxGeometry x="160" y="1370" width="120" height="20" as="geometry"/>
                </mxCell>
                <mxCell id="112" value="&lt;font color=&quot;#f0f0f0&quot; style=&quot;font-size: 10px;&quot;&gt;val_move + 0x00 = &lt;/font&gt;0x00000180_1B50FD20" style="rounded=0;whiteSpace=wrap;html=1;align=left;spacingLeft=5;fontFamily=Lucida Console;fontSize=10;fontColor=#33FF33;" parent="1" vertex="1">
                    <mxGeometry x="160" y="1230" width="240" height="20" as="geometry"/>
                </mxCell>
                <mxCell id="113" value="val_move + 0x08 = 5" style="rounded=0;whiteSpace=wrap;html=1;align=left;spacingLeft=5;fontFamily=Lucida Console;fontSize=11;" parent="1" vertex="1">
                    <mxGeometry x="160" y="1250" width="240" height="20" as="geometry"/>
                </mxCell>
                <mxCell id="114" value="val_move + 0x10 = 5" style="rounded=0;whiteSpace=wrap;html=1;align=left;spacingLeft=5;fontFamily=Lucida Console;fontSize=11;" parent="1" vertex="1">
                    <mxGeometry x="160" y="1270" width="240" height="20" as="geometry"/>
                </mxCell>
                <mxCell id="115" value="" style="rounded=0;whiteSpace=wrap;html=1;" parent="1" vertex="1">
                    <mxGeometry x="600" y="340" width="240" height="180" as="geometry"/>
                </mxCell>
                <mxCell id="116" value="val = 12345678" style="rounded=0;whiteSpace=wrap;html=1;align=left;spacingLeft=5;fontFamily=Lucida Console;fontSize=11;" parent="1" vertex="1">
                    <mxGeometry x="600" y="420" width="120" height="20" as="geometry"/>
                </mxCell>
                <mxCell id="118" value="Address" style="text;html=1;strokeColor=none;fillColor=none;align=center;verticalAlign=middle;whiteSpace=wrap;rounded=0;fontFamily=Lucida Console;" parent="1" vertex="1">
                    <mxGeometry x="510" y="320" width="40" height="20" as="geometry"/>
                </mxCell>
                <mxCell id="119" value="RAM" style="text;html=1;strokeColor=none;fillColor=none;align=center;verticalAlign=middle;whiteSpace=wrap;rounded=0;fontFamily=Lucida Console;" parent="1" vertex="1">
                    <mxGeometry x="690" y="320" width="40" height="20" as="geometry"/>
                </mxCell>
                <mxCell id="121" value="&lt;span style=&quot;color: rgb(240, 240, 240); font-size: 11px; font-style: normal; font-weight: 400; letter-spacing: normal; text-indent: 0px; text-transform: none; word-spacing: 0px; background-color: rgb(42, 42, 42); display: inline; float: none;&quot;&gt;0x00000000_00000000&lt;/span&gt;" style="text;whiteSpace=wrap;html=1;fontFamily=Lucida Console;align=right;fontSize=11;" parent="1" vertex="1">
                    <mxGeometry x="466" y="334" width="130" height="30" as="geometry"/>
                </mxCell>
                <mxCell id="122" value="&lt;span style=&quot;color: rgb(240, 240, 240); font-size: 11px; font-style: normal; font-weight: 400; letter-spacing: normal; text-indent: 0px; text-transform: none; word-spacing: 0px; background-color: rgb(42, 42, 42); display: inline; float: none;&quot;&gt;0xFFFFFFFF_FFFFFFFF&lt;/span&gt;" style="text;whiteSpace=wrap;html=1;fontFamily=Lucida Console;align=right;fontSize=11;" parent="1" vertex="1">
                    <mxGeometry x="466" y="495.5" width="130" height="29" as="geometry"/>
                </mxCell>
                <mxCell id="123" value="64-bit" style="rounded=0;whiteSpace=wrap;html=1;align=center;spacingLeft=5;fontFamily=Lucida Console;" parent="1" vertex="1">
                    <mxGeometry x="600" y="340" width="240" height="20" as="geometry"/>
                </mxCell>
                <mxCell id="124" value="32-bit" style="rounded=0;whiteSpace=wrap;html=1;align=center;spacingLeft=5;fontFamily=Lucida Console;" parent="1" vertex="1">
                    <mxGeometry x="600" y="360" width="120" height="20" as="geometry"/>
                </mxCell>
                <mxCell id="125" value="32-bit" style="rounded=0;whiteSpace=wrap;html=1;align=center;spacingLeft=5;fontFamily=Lucida Console;" parent="1" vertex="1">
                    <mxGeometry x="720" y="360" width="120" height="20" as="geometry"/>
                </mxCell>
                <mxCell id="128" value="val_move = 12345678" style="rounded=0;whiteSpace=wrap;html=1;align=left;spacingLeft=5;fontFamily=Lucida Console;fontSize=9;" parent="1" vertex="1">
                    <mxGeometry x="600" y="460" width="120" height="20" as="geometry"/>
                </mxCell>
                <mxCell id="129" value="" style="shape=curlyBracket;whiteSpace=wrap;html=1;rounded=1;flipH=1;size=0;" vertex="1" parent="1">
                    <mxGeometry x="410" y="810" width="10" height="60" as="geometry"/>
                </mxCell>
                <mxCell id="130" value="vec変数" style="text;whiteSpace=wrap;html=1;fontFamily=Lucida Console;align=left;fontSize=11;" vertex="1" parent="1">
                    <mxGeometry x="420" y="810.5" width="50" height="29" as="geometry"/>
                </mxCell>
                <mxCell id="131" value="" style="shape=curlyBracket;whiteSpace=wrap;html=1;rounded=1;flipH=1;size=0;" vertex="1" parent="1">
                    <mxGeometry x="406" y="900" width="10" height="60" as="geometry"/>
                </mxCell>
                <mxCell id="132" value="データ実体" style="text;whiteSpace=wrap;html=1;fontFamily=Lucida Console;align=left;fontSize=11;" vertex="1" parent="1">
                    <mxGeometry x="416" y="900.5" width="64" height="29" as="geometry"/>
                </mxCell>
                <mxCell id="133" value="" style="shape=curlyBracket;whiteSpace=wrap;html=1;rounded=1;flipH=1;size=0;" vertex="1" parent="1">
                    <mxGeometry x="410" y="1143" width="10" height="60" as="geometry"/>
                </mxCell>
                <mxCell id="134" value="val変数" style="text;whiteSpace=wrap;html=1;fontFamily=Lucida Console;align=left;fontSize=11;" vertex="1" parent="1">
                    <mxGeometry x="420" y="1143.5" width="50" height="29" as="geometry"/>
                </mxCell>
                <mxCell id="135" value="" style="shape=curlyBracket;whiteSpace=wrap;html=1;rounded=1;flipH=1;size=0;" vertex="1" parent="1">
                    <mxGeometry x="410" y="1230" width="10" height="60" as="geometry"/>
                </mxCell>
                <mxCell id="136" value="val_move変数" style="text;whiteSpace=wrap;html=1;fontFamily=Lucida Console;align=left;fontSize=11;" vertex="1" parent="1">
                    <mxGeometry x="420" y="1230.5" width="50" height="29" as="geometry"/>
                </mxCell>
                <mxCell id="137" value="" style="shape=curlyBracket;whiteSpace=wrap;html=1;rounded=1;flipH=1;size=0;" vertex="1" parent="1">
                    <mxGeometry x="411" y="1330" width="10" height="60" as="geometry"/>
                </mxCell>
                <mxCell id="139" value="データ実体" style="text;whiteSpace=wrap;html=1;fontFamily=Lucida Console;align=left;fontSize=11;" vertex="1" parent="1">
                    <mxGeometry x="421" y="1330" width="64" height="29" as="geometry"/>
                </mxCell>
                <mxCell id="140" value="" style="rounded=0;whiteSpace=wrap;html=1;" vertex="1" parent="1">
                    <mxGeometry x="754" y="641" width="240" height="279" as="geometry"/>
                </mxCell>
                <mxCell id="142" value="&lt;font style=&quot;font-size: 11px&quot;&gt;val_ptr =&amp;nbsp;&lt;/font&gt;&lt;font color=&quot;#007fff&quot;&gt;0x00000067_12aff018&lt;/font&gt;" style="rounded=0;whiteSpace=wrap;html=1;align=left;spacingLeft=5;fontFamily=Lucida Console;fontSize=11;" vertex="1" parent="1">
                    <mxGeometry x="754" y="761" width="240" height="20" as="geometry"/>
                </mxCell>
                <mxCell id="143" value="Address" style="text;html=1;strokeColor=none;fillColor=none;align=center;verticalAlign=middle;whiteSpace=wrap;rounded=0;fontFamily=Lucida Console;" vertex="1" parent="1">
                    <mxGeometry x="664" y="621" width="40" height="20" as="geometry"/>
                </mxCell>
                <mxCell id="144" value="RAM" style="text;html=1;strokeColor=none;fillColor=none;align=center;verticalAlign=middle;whiteSpace=wrap;rounded=0;fontFamily=Lucida Console;" vertex="1" parent="1">
                    <mxGeometry x="844" y="621" width="40" height="20" as="geometry"/>
                </mxCell>
                <mxCell id="145" value="&lt;div style=&quot;text-align: left&quot;&gt;&lt;span&gt;0x00000067_12aff018&lt;/span&gt;&lt;/div&gt;" style="text;whiteSpace=wrap;html=1;fontFamily=Lucida Console;align=right;fontColor=#007FFF;fontSize=11;" vertex="1" parent="1">
                    <mxGeometry x="620" y="798" width="130" height="30" as="geometry"/>
                </mxCell>
                <mxCell id="146" value="&lt;span style=&quot;color: rgb(240, 240, 240); font-size: 11px; font-style: normal; font-weight: 400; letter-spacing: normal; text-indent: 0px; text-transform: none; word-spacing: 0px; background-color: rgb(42, 42, 42); display: inline; float: none;&quot;&gt;0x00000000_00000000&lt;/span&gt;" style="text;whiteSpace=wrap;html=1;fontFamily=Lucida Console;align=right;fontSize=11;" vertex="1" parent="1">
                    <mxGeometry x="620" y="635" width="130" height="30" as="geometry"/>
                </mxCell>
                <mxCell id="147" value="&lt;span style=&quot;color: rgb(240, 240, 240); font-size: 11px; font-style: normal; font-weight: 400; letter-spacing: normal; text-indent: 0px; text-transform: none; word-spacing: 0px; background-color: rgb(42, 42, 42); display: inline; float: none;&quot;&gt;0xFFFFFFFF_FFFFFFFF&lt;/span&gt;" style="text;whiteSpace=wrap;html=1;fontFamily=Lucida Console;align=right;fontSize=11;" vertex="1" parent="1">
                    <mxGeometry x="624" y="900.5" width="130" height="29" as="geometry"/>
                </mxCell>
                <mxCell id="148" value="64-bit" style="rounded=0;whiteSpace=wrap;html=1;align=center;spacingLeft=5;fontFamily=Lucida Console;" vertex="1" parent="1">
                    <mxGeometry x="754" y="641" width="240" height="20" as="geometry"/>
                </mxCell>
                <mxCell id="149" value="32-bit" style="rounded=0;whiteSpace=wrap;html=1;align=center;spacingLeft=5;fontFamily=Lucida Console;" vertex="1" parent="1">
                    <mxGeometry x="754" y="661" width="120" height="20" as="geometry"/>
                </mxCell>
                <mxCell id="150" value="32-bit" style="rounded=0;whiteSpace=wrap;html=1;align=center;spacingLeft=5;fontFamily=Lucida Console;" vertex="1" parent="1">
                    <mxGeometry x="874" y="661" width="120" height="20" as="geometry"/>
                </mxCell>
                <mxCell id="151" value="val_ref =&amp;nbsp;&lt;font color=&quot;#007fff&quot;&gt;0x00000067_12AFF018&lt;/font&gt;" style="rounded=0;whiteSpace=wrap;html=1;align=left;spacingLeft=5;fontFamily=Lucida Console;fontSize=11;" vertex="1" parent="1">
                    <mxGeometry x="754" y="721" width="240" height="20" as="geometry"/>
                </mxCell>
                <mxCell id="155" value="val[0] = 0x10" style="rounded=0;whiteSpace=wrap;html=1;align=left;spacingLeft=5;fontFamily=Lucida Console;fontSize=11;" vertex="1" parent="1">
                    <mxGeometry x="754" y="798" width="120" height="20" as="geometry"/>
                </mxCell>
                <mxCell id="156" value="val[1] = 0x20" style="rounded=0;whiteSpace=wrap;html=1;align=left;spacingLeft=5;fontFamily=Lucida Console;fontSize=11;" vertex="1" parent="1">
                    <mxGeometry x="874" y="798" width="120" height="20" as="geometry"/>
                </mxCell>
                <mxCell id="157" value="val[2] = 0x30" style="rounded=0;whiteSpace=wrap;html=1;align=left;spacingLeft=5;fontFamily=Lucida Console;fontSize=11;" vertex="1" parent="1">
                    <mxGeometry x="754" y="818" width="120" height="20" as="geometry"/>
                </mxCell>
                <mxCell id="158" value="val[3] = 0x40" style="rounded=0;whiteSpace=wrap;html=1;align=left;spacingLeft=5;fontFamily=Lucida Console;fontSize=11;" vertex="1" parent="1">
                    <mxGeometry x="874" y="818" width="120" height="20" as="geometry"/>
                </mxCell>
                <mxCell id="159" value="val[4] = 0x50" style="rounded=0;whiteSpace=wrap;html=1;align=left;spacingLeft=5;fontFamily=Lucida Console;fontSize=11;" vertex="1" parent="1">
                    <mxGeometry x="754" y="838" width="120" height="20" as="geometry"/>
                </mxCell>
                <mxCell id="164" value="" style="rounded=0;whiteSpace=wrap;html=1;" vertex="1" parent="1">
                    <mxGeometry x="754" y="971" width="240" height="279" as="geometry"/>
                </mxCell>
                <mxCell id="166" value="Address" style="text;html=1;strokeColor=none;fillColor=none;align=center;verticalAlign=middle;whiteSpace=wrap;rounded=0;fontFamily=Lucida Console;" vertex="1" parent="1">
                    <mxGeometry x="664" y="951" width="40" height="20" as="geometry"/>
                </mxCell>
                <mxCell id="167" value="RAM" style="text;html=1;strokeColor=none;fillColor=none;align=center;verticalAlign=middle;whiteSpace=wrap;rounded=0;fontFamily=Lucida Console;" vertex="1" parent="1">
                    <mxGeometry x="844" y="951" width="40" height="20" as="geometry"/>
                </mxCell>
                <mxCell id="169" value="&lt;span style=&quot;color: rgb(240, 240, 240); font-size: 11px; font-style: normal; font-weight: 400; letter-spacing: normal; text-indent: 0px; text-transform: none; word-spacing: 0px; background-color: rgb(42, 42, 42); display: inline; float: none;&quot;&gt;0x00000000_00000000&lt;/span&gt;" style="text;whiteSpace=wrap;html=1;fontFamily=Lucida Console;align=right;fontSize=11;" vertex="1" parent="1">
                    <mxGeometry x="620" y="965" width="130" height="30" as="geometry"/>
                </mxCell>
                <mxCell id="170" value="&lt;span style=&quot;color: rgb(240, 240, 240); font-size: 11px; font-style: normal; font-weight: 400; letter-spacing: normal; text-indent: 0px; text-transform: none; word-spacing: 0px; background-color: rgb(42, 42, 42); display: inline; float: none;&quot;&gt;0xFFFFFFFF_FFFFFFFF&lt;/span&gt;" style="text;whiteSpace=wrap;html=1;fontFamily=Lucida Console;align=right;fontSize=11;" vertex="1" parent="1">
                    <mxGeometry x="624" y="1230.5" width="130" height="29" as="geometry"/>
                </mxCell>
                <mxCell id="171" value="64-bit" style="rounded=0;whiteSpace=wrap;html=1;align=center;spacingLeft=5;fontFamily=Lucida Console;" vertex="1" parent="1">
                    <mxGeometry x="754" y="971" width="240" height="20" as="geometry"/>
                </mxCell>
                <mxCell id="172" value="32-bit" style="rounded=0;whiteSpace=wrap;html=1;align=center;spacingLeft=5;fontFamily=Lucida Console;" vertex="1" parent="1">
                    <mxGeometry x="754" y="991" width="120" height="20" as="geometry"/>
                </mxCell>
                <mxCell id="173" value="32-bit" style="rounded=0;whiteSpace=wrap;html=1;align=center;spacingLeft=5;fontFamily=Lucida Console;" vertex="1" parent="1">
                    <mxGeometry x="874" y="991" width="120" height="20" as="geometry"/>
                </mxCell>
                <mxCell id="175" value="val[0] = 0x10" style="rounded=0;whiteSpace=wrap;html=1;align=left;spacingLeft=5;fontFamily=Lucida Console;fontSize=11;" vertex="1" parent="1">
                    <mxGeometry x="754" y="1044" width="120" height="20" as="geometry"/>
                </mxCell>
                <mxCell id="176" value="val[1] = 0x20" style="rounded=0;whiteSpace=wrap;html=1;align=left;spacingLeft=5;fontFamily=Lucida Console;fontSize=11;" vertex="1" parent="1">
                    <mxGeometry x="874" y="1044" width="120" height="20" as="geometry"/>
                </mxCell>
                <mxCell id="177" value="val[2] = 0x30" style="rounded=0;whiteSpace=wrap;html=1;align=left;spacingLeft=5;fontFamily=Lucida Console;fontSize=11;" vertex="1" parent="1">
                    <mxGeometry x="754" y="1064" width="120" height="20" as="geometry"/>
                </mxCell>
                <mxCell id="178" value="val[3] = 0x40" style="rounded=0;whiteSpace=wrap;html=1;align=left;spacingLeft=5;fontFamily=Lucida Console;fontSize=11;" vertex="1" parent="1">
                    <mxGeometry x="874" y="1064" width="120" height="20" as="geometry"/>
                </mxCell>
                <mxCell id="179" value="val[4] = 0x50" style="rounded=0;whiteSpace=wrap;html=1;align=left;spacingLeft=5;fontFamily=Lucida Console;fontSize=11;" vertex="1" parent="1">
                    <mxGeometry x="754" y="1084" width="120" height="20" as="geometry"/>
                </mxCell>
                <mxCell id="180" value="val_move[0] = 0x10" style="rounded=0;whiteSpace=wrap;html=1;align=left;spacingLeft=5;fontFamily=Lucida Console;fontSize=10;" vertex="1" parent="1">
                    <mxGeometry x="754" y="1137" width="120" height="20" as="geometry"/>
                </mxCell>
                <mxCell id="181" value="val_move[1] = 0x20" style="rounded=0;whiteSpace=wrap;html=1;align=left;spacingLeft=5;fontFamily=Lucida Console;fontSize=10;" vertex="1" parent="1">
                    <mxGeometry x="874" y="1137" width="120" height="20" as="geometry"/>
                </mxCell>
                <mxCell id="182" value="val_move[2] = 0x30" style="rounded=0;whiteSpace=wrap;html=1;align=left;spacingLeft=5;fontFamily=Lucida Console;fontSize=10;" vertex="1" parent="1">
                    <mxGeometry x="754" y="1157" width="120" height="20" as="geometry"/>
                </mxCell>
                <mxCell id="183" value="val_move[3] = 0x40" style="rounded=0;whiteSpace=wrap;html=1;align=left;spacingLeft=5;fontFamily=Lucida Console;fontSize=10;" vertex="1" parent="1">
                    <mxGeometry x="874" y="1157" width="120" height="20" as="geometry"/>
                </mxCell>
                <mxCell id="184" value="val_move[4] = 0x50" style="rounded=0;whiteSpace=wrap;html=1;align=left;spacingLeft=5;fontFamily=Lucida Console;fontSize=10;" vertex="1" parent="1">
                    <mxGeometry x="754" y="1177" width="120" height="20" as="geometry"/>
                </mxCell>
                <mxCell id="186" value="" style="html=1;shadow=0;dashed=0;align=center;verticalAlign=middle;shape=mxgraph.arrows2.uTurnArrow;dy=2.91;arrowHead=18.52;dx2=10.64;fontSize=10;rotation=-180;fillColor=#B5B5B5;" vertex="1" parent="1">
                    <mxGeometry x="730" y="420" width="40" height="61" as="geometry"/>
                </mxCell>
                <mxCell id="188" value="" style="html=1;shadow=0;dashed=0;align=center;verticalAlign=middle;shape=mxgraph.arrows2.uTurnArrow;dy=2.91;arrowHead=18.52;dx2=10.64;fontSize=10;rotation=-180;fillColor=#B5B5B5;" vertex="1" parent="1">
                    <mxGeometry x="470" y="1169" width="60" height="105" as="geometry"/>
                </mxCell>
                <mxCell id="189" value="" style="shape=curlyBracket;whiteSpace=wrap;html=1;rounded=1;flipH=1;size=0;" vertex="1" parent="1">
                    <mxGeometry x="994" y="1044" width="10" height="60" as="geometry"/>
                </mxCell>
                <mxCell id="190" value="val変数" style="text;whiteSpace=wrap;html=1;fontFamily=Lucida Console;align=left;fontSize=11;" vertex="1" parent="1">
                    <mxGeometry x="1004" y="1044.5" width="50" height="29" as="geometry"/>
                </mxCell>
                <mxCell id="191" value="" style="shape=curlyBracket;whiteSpace=wrap;html=1;rounded=1;flipH=1;size=0;" vertex="1" parent="1">
                    <mxGeometry x="994" y="1136" width="10" height="60" as="geometry"/>
                </mxCell>
                <mxCell id="192" value="val_move変数" style="text;whiteSpace=wrap;html=1;fontFamily=Lucida Console;align=left;fontSize=11;" vertex="1" parent="1">
                    <mxGeometry x="1004" y="1136.5" width="50" height="29" as="geometry"/>
                </mxCell>
                <mxCell id="193" value="" style="html=1;shadow=0;dashed=0;align=center;verticalAlign=middle;shape=mxgraph.arrows2.uTurnArrow;dy=2.91;arrowHead=18.52;dx2=10.64;fontSize=10;rotation=-180;fillColor=#B5B5B5;" vertex="1" parent="1">
                    <mxGeometry x="1054" y="1070" width="60" height="105" as="geometry"/>
                </mxCell>
            </root>
        </mxGraphModel>
    </diagram>
</mxfile>